<?xml version="1.0" encoding="utf-8"?>
<svg xmlns="http://www.w3.org/2000/svg" version="1.1" viewBox="99.2 219.20000000000002 1001.6 371.20000000000005" style="max-height: 500px" width="1001.6" height="371.20000000000005">
  <g transform="matrix(1, 0, 0, 1, 1.86402, 5.902729)">
    <path fill="#0566A4" d="M 844 238 C 855.509 237.744 867.018 237.549 878.53 237.43 C 883.877 237.373 889.222 237.295 894.567 237.17 C 899.735 237.05 904.901 236.985 910.07 236.956 C 912.033 236.936 913.996 236.897 915.958 236.837 C 925.857 236.548 933.741 236.353 941.392 243.266 C 942.354 244.219 943.304 245.184 944.24 246.162 C 955.143 257.374 969.481 261.365 984.102 265.418 C 994.798 268.421 1003.63 271.973 1013 278 C 1030.32 288.913 1049.55 296.679 1069.14 302.491 C 1073.91 303.909 1073.91 303.909 1075 305 C 1075.56 307.688 1075.56 307.688 1075 311 C 1070.29 316.076 1064.53 318.68 1057.65 319.167 C 1050.38 319.332 1044.2 318 1037.25 316 C 1022.62 311.731 1022.62 311.731 1008 314 C 1006.5 325.555 1011.43 336.984 1018.13 346.188 C 1027.07 357.239 1037.12 367.235 1047.24 377.201 C 1050.86 380.779 1054.38 384.369 1057.69 388.23 C 1060.61 391.629 1063.69 394.55 1067.06 397.5 C 1073.64 403.376 1079.59 408.792 1080.31 417.938 C 1080.25 420.828 1080.05 421.921 1078.56 424.5 C 1074.63 426.8 1071.43 427.019 1067 426 C 1060.39 422.529 1055.32 416.35 1050.16 411.051 C 1045.72 406.561 1040.98 402.704 1035.96 398.895 C 1031.62 395.573 1027.82 391.939 1024.02 388.004 C 1018.55 382.575 1012.01 377.32 1004.06 376.813 C 1003.38 376.874 1002.7 376.936 1002 377 C 1000.93 380.875 1000.98 382.834 1002.81 386.406 C 1003.22 387.225 1003.63 388.044 1004.06 388.887 C 1004.51 389.75 1004.97 390.612 1005.44 391.5 C 1005.9 392.401 1006.36 393.303 1006.84 394.232 C 1009.33 399.021 1011.95 403.65 1014.88 408.188 C 1021.27 418.226 1026 429.223 1031 440 C 1031.4 440.858 1031.81 441.716 1032.22 442.601 C 1033.24 444.79 1034.25 446.986 1035.25 449.188 C 1035.79 450.377 1036.33 451.567 1036.89 452.793 C 1038.05 456.142 1038.36 458.487 1038 462 C 1035.96 465.658 1034.5 467.669 1031 470 C 1026.05 469.785 1023.51 468.437 1020 465 C 1018.18 461.902 1016.74 458.642 1015.25 455.375 C 1010.99 446.414 1006.05 438.216 1000.5 430 C 993.318 419.355 987.32 408.5 981.967 396.834 C 981.024 394.827 981.024 394.827 979 393 C 978.01 393 977.02 393 976 393 C 975.401 402.23 977.196 410.619 979.438 419.5 C 979.612 420.212 979.787 420.925 979.968 421.659 C 982.797 433.169 986.202 444.386 990.205 455.547 C 990.57 456.577 990.936 457.607 991.313 458.668 C 991.639 459.558 991.965 460.447 992.301 461.364 C 993.103 464.39 993.246 466.881 993 470 C 991.5 472.565 990.108 474.892 988 477 C 985.023 477.496 982.903 477.545 980.267 475.955 C 975.355 471.94 973.31 468.161 971.375 462.188 C 971.085 461.353 970.795 460.518 970.496 459.658 C 968.429 453.617 966.679 447.497 964.986 441.342 C 963.456 436.005 961.317 431.133 958.938 426.125 C 955.585 419.04 953.617 412.174 952.279 404.456 C 951.427 399.575 950.461 395.341 948 391 C 945.45 390.267 945.45 390.267 943 390 C 941.374 402.528 939.964 414.994 939.719 427.629 C 939.703 428.435 939.687 429.24 939.67 430.07 C 939.599 434.048 939.56 438.023 939.555 442.001 C 939.538 443.476 939.521 444.951 939.504 446.426 C 939.502 447.719 939.5 449.012 939.498 450.345 C 938.882 454.865 937.314 458.686 934 462 C 931.75 462.563 931.75 462.563 929 462 C 921.73 454.026 921.577 443.125 920.875 432.938 C 920.789 431.792 920.702 430.647 920.613 429.467 C 920.383 426.312 920.187 423.157 920 420 C 919.908 418.742 919.817 417.484 919.723 416.188 C 920.093 411.929 921.589 408.811 923.563 405.063 C 923.923 404.36 924.284 403.657 924.655 402.932 C 927.477 397.603 930.77 393.296 935 389 C 935.598 388.134 936.196 387.268 936.813 386.375 C 941.722 381.045 948.313 378.195 955 375.688 C 960.598 373.461 964.267 370.415 968.574 366.266 C 972.396 362.696 976.64 359.867 981 357 C 981.933 356.379 982.867 355.757 983.828 355.117 C 991.664 350 991.664 350 996.125 348.313 C 999.153 347.319 999.153 347.319 999.938 344.813 C 999.968 343.915 999.968 343.915 1000 343 C 992.726 340.575 985.07 341.09 978.25 344.5 C 977.37 344.955 976.489 345.41 975.582 345.879 C 971.501 347.651 968.391 347.488 964 347 C 961.65 344.65 961.693 344.115 961.656 340.914 C 961.779 335.801 963.296 331.931 965.5 327.375 C 965.859 326.602 966.218 325.828 966.587 325.031 C 969.568 318.688 972.819 312.493 976.18 306.344 C 978.571 301.951 980.826 297.504 983 293 C 983.32 292.367 983.639 291.734 983.969 291.082 C 985.946 286.935 986.365 283.566 986 279 C 984.957 277.762 984.957 277.762 982.688 277.625 C 979.825 277.733 979.825 277.733 978.035 280.148 C 975.99 283.014 974.361 285.871 972.75 289 C 968.005 297.989 962.67 306.564 957 315 C 955.35 314.67 953.7 314.34 952 314 C 952.739 309.666 954.058 305.585 955.469 301.434 C 955.709 300.718 955.949 300.002 956.197 299.264 C 956.962 296.988 957.731 294.712 958.5 292.438 C 959.269 290.159 960.037 287.88 960.803 285.6 C 961.279 284.185 961.756 282.77 962.235 281.356 C 963.875 276.487 965.138 272.391 965.063 267.25 C 965.053 266.451 965.044 265.652 965.035 264.828 C 965.024 264.225 965.012 263.622 965 263 C 963.02 262.67 961.04 262.34 959 262 C 956.925 265.736 955.489 269.426 954.188 273.5 C 952.298 279.349 949.928 284.896 947.449 290.516 C 945.658 294.823 944.267 299.198 942.957 303.672 C 942 306 942 306 939 308 C 937.087 306.087 937.831 302.727 937.811 300.155 C 937.812 298.748 937.812 298.748 937.813 297.313 C 937.812 296.361 937.811 295.409 937.811 294.429 C 937.86 287.765 938.452 281.477 939.547 274.902 C 940.131 271.159 940.291 267.777 940 264 C 939.01 263.01 939.01 263.01 938 262 C 935.065 262.367 934.136 262.864 932 265 C 931.384 267.25 931.384 267.25 931 269.875 C 930.835 270.861 930.67 271.847 930.5 272.863 C 930.335 273.898 930.17 274.934 930 276 C 929.668 278.021 929.335 280.042 929 282.063 C 928.837 283.056 928.674 284.049 928.506 285.072 C 928.023 287.865 927.477 290.635 926.902 293.41 C 926.049 297.573 925.652 301.63 925.441 305.871 C 924.91 308.433 923.984 309.355 922 311 C 916.849 305.849 918.576 291.586 918.434 284.863 C 918.404 283.877 918.374 282.891 918.344 281.875 C 918.316 280.541 918.316 280.541 918.287 279.18 C 918.198 276.792 918.198 276.792 916 275 C 913.931 274.357 913.931 274.357 912 274 C 911.297 277.244 910.836 280.362 910.659 283.676 C 910.583 285.024 910.583 285.024 910.506 286.399 C 910.43 287.841 910.43 287.841 910.352 289.313 C 910.232 291.379 910.112 293.445 909.992 295.512 C 909.808 298.745 909.626 301.979 909.453 305.213 C 908.065 330.907 908.065 330.907 905 339 C 904.01 339.495 904.01 339.495 903 340 C 902.818 339.007 902.636 338.015 902.449 336.992 C 901.924 334.132 901.378 331.277 900.824 328.422 C 900.313 325.763 899.884 323.14 899.52 320.453 C 897.374 306.711 888.836 294.761 879.949 284.336 C 878.28 282.335 876.718 280.305 875.164 278.215 C 872.111 274.116 868.925 270.142 865.688 266.188 C 865.123 265.495 864.558 264.803 863.976 264.09 C 862.845 262.703 861.712 261.317 860.579 259.932 C 859.173 258.211 857.769 256.489 856.367 254.766 C 853.111 250.77 849.845 246.804 846.438 242.938 C 844 240 844 240 844 238 Z" style="--darkreader-inline-fill: var(--darkreader-background-0566a4, #045283); visibility: visible;" data-darkreader-inline-fill="" data-index="2"/>
    <g id="svg46" transform="matrix(1, 0, 0, 1, -1.55335, -104.074432)">
      <g id="g52" transform="matrix(1, 0, 0, 1, 59.944942, 237.70256)">
        <path style="fill:#0966a2;stroke:none" d="m 324.2379,101.74986 c -20.219,2.688 -40.129,8.166 -56,21.746 -58.446,50.007 -48.25,159.056 27,186.394 10.042,3.648 21.342,5.483 32,5.435 12.507,-0.055 25.51,-2.951 37,-7.872 9.111,-3.901 38.27,-21.093 21.786,-33.389 -7.235,-5.396 -15.252,0.845 -21.786,3.942 -10.621,5.034 -24.126,8.99 -36,8.23 -56.723,-3.633 -73.475,-71.589 -55.136,-116.91 10.231,-25.282 33.178,-43.664 61.136,-43.996 6.282,-0.075 14.237,-1.002 19.856,2.438 10.643,6.516 8.265,37.268 30.129,26.638 12.539,-6.096 8.751,-33.972 -0.028,-41.867 -14.022,-12.610998 -42.293,-13.135998 -59.957,-10.789 m -239.999996,185.576 c -6.188,0.488 -14.954,0.732 -19.605998,5.394 -7.268,7.284 -1.739,17.297 7.605998,17.591 13.97,0.438 28.021996,0.015 41.999996,0.015 6.403,0 14.817,1.429 20.96,-0.514 8.082,-2.556 7.681,-13.347 1.931,-18.052 -4.784,-3.915 -13.941,-3.964 -19.891,-4.434 v -159 c 14.804,0 31.537,-1.587 45,5.799 18.506,10.154 20.91,40.791 7.787,56.2 -6.857,8.051 -15.589,11.837 -25.787,13.74 -5.326,0.994 -12.184,0.405 -16.815,3.489 -7.263,4.838 -6.535,16.631 1.82,19.878 8.004,3.112 19.808,0.471 27.995,-0.86 43.009,-6.991 69.624,-48.537 50.688,-90.246 -17.14,-37.748998 -71.714,-31 -105.688,-31 -9.890996,0 -35.712996,-4.669 -40.256994,7.015 -7.036,18.094 21.693998,11.497 22.237998,23.986 2.184,50.119 0.019,100.826 0.019,150.999 m 355.999996,-158 v 158 c -5.901,0.466 -14.366,0.814 -18.772,5.228 -4.83,4.84 -4.461,14.958 2.812,17.258 6.143,1.943 14.557,0.514 20.96,0.514 13.625,0 27.388,0.57 41,-0.019 9.122,-0.395 13.374,-11.137 6.772,-17.753 -4.555,-4.563 -13.661,-4.966 -19.772,-5.228 v -106 c 0,-14.745 -3.579,-34.75 0.318,-48.941 1.742,-6.345 13.76,-4.281 18.682,-3.635 15.255,2.003 33.095,3.307 38.895,20.576 6.559,19.529 -5.824,39.016 -24.895,44.115 -8.747,2.339 -23.318,0.331 -26.953,10.886 -4.976,14.45 18.236,17.133 25.949,23.467 24.698,20.279 22.53,62.887 51.004,78.627 10.017,5.537 21.978,3.905 33,3.905 h 65 c 8.553,0 24.334,3.038 31.956,-1.028 6.508,-3.471 6.388,-13.152 0.935,-17.458 -4.921,-3.886 -13.86,-4.038 -19.891,-4.514 v -69 c 16.478,0 34.734,2.207 51,-0.44 7.98,-1.298 14.38,-8.069 11.107,-16.556 -2.797,-7.252 -10.397,-7.993 -17.107,-8.004 h -45 v -65 h 39 c 4.93,0 12.264,-1.349 16.867,0.603 9.56,4.055 5.033,22.697 21.133,20.977 16.432,-1.755 14.64,-35.2 2.96,-41.815 -8.661,-4.906 -21.396,-2.765 -30.96,-2.765 h -68 c -8.948,0 -24.051,-2.856 -31.956,1.938 -6.218,3.771 -6.495,13.04 -0.911,17.548 4.611,3.722 13.161,4.063 18.867,4.514 v 158 c -17.645,0 -44.731,5.346 -58.826,-7.468 -22.017,-20.014 -19.834,-59.86 -51.174,-70.532 13.883,-5.316 26.457,-9.995 35.11,-23 19.612,-29.479 4.576,-68.901 -29.11,-77.522 -23.273,-5.956 -49.169,-3.478 -73,-3.478 -9.784,0 -22.62,-2.177 -31.996,0.804 -8.168,2.597 -9.314,13.501 -2.895,18.762 4.418,3.622 12.405,3.737 17.891,4.434 m 395,258 h -6 v 6 h 6 v 37 h 6 v -37 h 8 v -6 h -8 c 0,-7.746 -0.5,-14.691 9,-15 -0.582,-7.471 -8.247,-6.801 -12.486,-1.775 -3.68,4.363 -2.514,11.48 -2.514,16.775 m -698,-20 v 63 h 6 v -63 h -6 m 265,0 v 63 h 6 c 0,-9.236 -1.988,-21.14 0.804,-29.999 1.223,-3.881 4.592,-8.226 9.181,-7.459 11.348,1.898 7.015,29.364 7.015,37.458 h 6 c 0,-10.569 3.173,-27.352 -1.573,-36.985 -4.169,-8.463 -16.07,-7.547 -20.427,-0.015 h -1 v -26 h -6 m 58,0 v 63 h 6 v -63 h -6 m 40,0 v 25 c -19.745,-18.256 -29.836,17.289 -21.583,31.985 4.793,8.534 16.291,8.946 20.583,0.015 h 1 v 6 h 6 v -63 h -6 m 261,0 v 63 h 6 v -63 h -6 m 252,0 v 25 h -1 c -4.56,-7.397 -15.25005,-6.075 -19.64005,1.043 -5.12,8.313 -5.77,22.347 -0.94,30.942 4.79,8.536 16.29005,8.944 20.58005,0.015 h 1 v 6 h 6 v -63 h -6 m -621,55 c -4.179,1.609 -8.408,3.537 -13,2.652 -20.887,-4.027 -19.099,-43.543 0,-48.837 4.509,-1.25 8.826,0.629 13,2.185 v -7 c -7.618,-1.477 -14.921,-2.688 -21.985,1.613 -15.439,9.4 -16.684,39.656 -4.802,52.282 6.673,7.091 26.346,10.577 26.787,-2.895 m -327.999994,-52 v 60 h 5.999998 v -22 c 5.234,-0.043 11.449,-0.19 15.907,-3.264 8.858,-6.107 11.161,-22.765 2.879,-30.342 -6.302,-5.766 -16.938,-4.394 -24.785998,-4.394 m 182.312994,0.801 c -4.33,1.751 -1.117,8.605 3.257,6.576 4.12,-1.91 0.868,-8.244 -3.257,-6.576 m 197.005,0.246 c -4.086,2.61 0.391,8.621 4.079,5.906 3.495,-2.574 -0.165,-8.407 -4.079,-5.906 m 175.682,-1.047 c -0.449,5.639 -5.237,15.179 0,19 l 6,-19 h -6 m 65,0 v 60 h 6 v -25 c 17.28,0.204 9.501,24.815 25,25 -1.621,-9.42 -5.618,-20.841 -12,-28 11.573,-3.937 14.976,-20.754 4.956,-28.567 -6.324,-4.931 -16.461,-3.433 -23.956,-3.433 m 96.318,1.072 c -4.13,2.526 0.387,8.581 4.079,5.882 3.504,-2.562 -0.258,-8.22 -4.079,-5.882 m 96.682,-1.072 v 60 h 6 v -26 h 17 v -6 h -17 v -22 h 18 v -6 h -24 m -654,17 h -6 v 6 h 6 c 0,13.423 -5.823,40.808 15,37 v -5 c -13.794,-0.448 -9,-22.059 -9,-32 9.908,-0.035 9.908,-5.965 0,-6 v -12 c -6.524,1.76 -5.999,6.062 -6,12 m -152.999996,15 v -26 c 3.944,0 8.495,-0.563 11.945,1.742 14.444,9.652 0.093,24.225 -11.945,24.258 m 619.999996,-3 v -23 c 4.117,0 9.228,-0.656 12.786,1.858 13.68,9.666 -2.698,21.135 -12.786,21.142 m -588,-3 c 8.898,-4.019 17.693,-5.696 18,7 -6.466,0.871 -15.381,2.153 -19.258,8.044 -9.275996,14.096 8.004,24.455 19.258,13.956 v 5 h 6 c 0,-10.078 3.668,-29.252 -1.858,-37.956 -5.373,-8.464 -21.787,-6.894 -22.142,3.956 m 78,27 c -11.594,2.65 -20.362,0.936 -21,-13 h 24 c -0.019,-6.861 -0.31,-15.85 -6.108,-20.566 -10.895,-8.863 -22.923,3.733 -23.799,14.566 -0.616,7.621 -0.411,18.107 6.095,23.351 6.265,5.05 20.046,5.571 20.812,-4.351 m 10,0 c 0.38,11.442 17.321,9.406 21.427,0.985 6.346,-13.017 -10.69,-15.016 -14.29,-23.999 -3.584,-8.942 9.604,-7.336 13.863,-5.986 -0.366,-10.996 -16.991,-8.409 -20.258,0.005 -4.991,12.853 10.119,14.333 14.211,23.01 4.772,10.12 -10.498,7.431 -14.953,5.985 m 55,-36 v 43 h 6 v -32 c 0,-5.685 0.778,-10.472 -6,-11 m 18,0 v 43 h 6 c 0,-7.71 -4.52,-38.949 8.997,-37.353 11.458,1.353 7.003,29.335 7.003,37.353 h 6 c 0,-10.834 2.637,-25.648 -0.653,-35.996 -3.299,-10.378 -15.184,-7.48 -21.347,-2.004 -0.652,-3.911 -2.136,-4.7 -6,-5 m 65,36 c -11.902,2.015 -20.867,1.912 -21,-13 h 23 c 0,-6.197 0.558,-13.657 -3.652,-18.786 -12.072,-14.709 -25.917,4.786 -26.305,16.786 -0.247,7.654 1.741,16.879 8.961,20.86 6.435,3.549 18.297,2.929 18.996,-5.86 m 114,7 h 6 v -43 c -6.778,0.528 -6,5.315 -6,11 v 32 m 76,-43 v 43 h 6 c 0,-12.342 -4.823,-36.79 13,-37 v -6 c -5.506,0.05 -9.412,0.755 -12,6 h -1 v -6 h -6 m 49,36 c -11.929,2.021 -20.677,2.146 -21,-13 h 23 c 0,-6.197 0.558,-13.657 -3.652,-18.786 -11.928,-14.533 -25.718,4.935 -26.244,16.786 -0.328,7.408 1.995,16.984 8.911,20.86 6.418,3.597 18.289,2.891 18.985,-5.86 m 11,-36 v 43 h 6 c 0,-9.214 -2.013,-21.104 0.434,-29.999 1.15,-4.184 5.768,-8.861 10.472,-7.215 9.294,3.253 5.094,29.31 5.094,37.214 h 7 c 0,-10.848 3.187,-28.136 -2.175,-37.956 -4.251,-7.784 -16.262,-6.266 -19.825,0.956 h -1 v -6 h -6 m 52,36 c 0.4,12.031 18.712,9.188 22.258,-0.004 4.786,-12.409 -9.943,-14.028 -14.295,-22.089 -5.323,-9.861 9.436,-8.124 14.037,-6.907 -0.885,-11.451 -18.522,-8.032 -21.346,1.004 -3.758,12.022 9.738,13.555 14.56,21.18 3.466,5.481 -3.365,9.626 -8.212,8.798 -2.365,-0.404 -4.685,-1.363 -7.002,-1.982 m 120,-1 c -11.542,5.386 -20.387,1.377 -21,-12 h 24 c -0.139,-6.746 -0.445,-15.959 -6.108,-20.566 -11.476,-9.335 -23.349,4.482 -23.853,15.566 -0.344,7.573 -0.35,17.112 6.149,22.351 6.924,5.581 20.464,5.247 20.812,-5.351 m 29,-35 v 43 h 6 v -43 h -6 m 43,35 c -11.725,4.777 -20.701,2.04 -21,-12 h 23 c 0,-6.741 0.651,-14.449 -4.394,-19.772 -12.267,-12.943 -25.025,6.368 -25.347,17.772 -0.197,6.977 1.678,16.109 7.784,20.272 7.071,4.822 19.636,3.522 19.957,-6.272 m 109.99999,2 h 1 v 6 h 6 v -43 h -6 v 16 c 0,5.569 1.259,13.014 -2.009,17.891 -3.123,4.661 -9.91299,5.343 -12.81199,0.05 -4.438,-8.102 0.189,-20.985 -1.327,-29.882 -0.461,-2.707 -3.515,-5.321 -5.825,-2.451 -1.808,2.245 -1.027,6.719 -1.027,9.392 -10e-4,8.476 -2.324,21.491 3.005,28.775 5.218,7.131 15.64899,4.188 18.99499,-2.775 m 19,-37 v 43 h 6 c 0,-7.738 -4.46,-38.577 8.99996,-37.338 11.47,1.056 7,29.424 7,37.338 h 6 c 0,-10.713 3.06,-26.968 -0.89,-36.985 -3.46,-8.761 -16.38996,-7.563 -20.10996,-0.015 -1.56,-4.062 -2.5,-5.649 -7,-6 m -773.99999,18 h -18 c 0.847,-6.257 6.914,-18.566 14.566,-10.682 2.641,2.721 2.592,7.186 3.434,10.682 m 147,0 h -17 c 0.373,-15.873 16.303,-15.982 17,0 m 166.004,-12.522 c 13.321,-2.855 13.923,29.205 2.981,32.084 -14.404,3.789 -15.408,-29.421 -2.981,-32.084 m 72.996,12.522 h -17 c 0.722,-15.757 16.657,-16.108 17,0 m 183,0 h -17 c 1.371,-15.608 16.863,-16.361 17,0 m 72,0 h -17 c 0.722,-15.757 16.657,-16.108 17,0 m 185,-12.522 c 13.44,-2.879 14.04,29.552 2.98,32.199 -14.50005,3.473 -15.35005,-29.547 -2.98,-32.199 m -883,15.522 c 0,2.965 0.228,6.074 -0.34,8.999 -3.566,18.353 -25.425996,-1.926 -7.656,-7.555 2.625,-0.832 5.267,-1.221 7.996,-1.444 z" id="path261"/>
      </g>
    </g>
  </g>
</svg>